<?xml version="1.0" encoding="UTF-8"?>
<svg version="1.1" xmlns="http://www.w3.org/2000/svg" width="500" height="500">
<path d="M0 0 C2.57562959 0.00315284 5.15009774 -0.02037072 7.72558594 -0.0456543 C23.08356425 -0.1053434 37.64154415 2.13379416 52.46777344 6.12817383 C53.4394043 6.38824219 54.41103516 6.64831055 55.41210938 6.91625977 C74.01490067 12.01434703 90.72825896 20.0046179 107.03027344 30.31567383 C107.62469238 30.68926025 108.21911133 31.06284668 108.83154297 31.44775391 C110.20789101 32.34626683 111.53220969 33.32366473 112.84277344 34.31567383 C112.84277344 34.97567383 112.84277344 35.63567383 112.84277344 36.31567383 C113.535 36.53739258 114.22722656 36.75911133 114.94042969 36.98754883 C118.55813551 38.64302659 121.31791558 40.96546547 124.28027344 43.56567383 C124.88645508 44.09362549 125.49263672 44.62157715 126.1171875 45.16552734 C137.09548827 54.84585212 147.69545596 65.07592498 155.84277344 77.31567383 C155.84277344 77.97567383 155.84277344 78.63567383 155.84277344 79.31567383 C156.50277344 79.31567383 157.16277344 79.31567383 157.84277344 79.31567383 C158.95263672 80.72998047 158.95263672 80.72998047 160.16308594 82.72583008 C160.61200195 83.46051514 161.06091797 84.1952002 161.5234375 84.95214844 C162.23838379 86.15303101 162.23838379 86.15303101 162.96777344 87.37817383 C163.45987305 88.19874268 163.95197266 89.01931152 164.45898438 89.86474609 C165.93319556 92.34102764 167.39124765 94.82603792 168.84277344 97.31567383 C169.23368164 97.98179687 169.62458984 98.64791992 170.02734375 99.33422852 C178.18985608 113.39395176 183.29629758 128.24509244 187.15527344 144.00317383 C187.39777832 144.98721191 187.6402832 145.97125 187.89013672 146.98510742 C191.19423005 161.17519588 192.25809063 175.23839896 192.21777344 189.75317383 C192.21689728 190.53292572 192.21602112 191.31267761 192.21511841 192.11605835 C192.06513659 232.88879759 179.10823553 275.22848379 151.84277344 306.31567383 C150.46765436 308.06558026 149.09266222 309.81558645 147.71777344 311.56567383 C138.92785393 322.26512757 128.87303034 331.95021905 117.84277344 340.31567383 C116.70195313 341.18192383 116.70195313 341.18192383 115.53808594 342.06567383 C91.50881024 359.5415107 64.0175525 370.98526517 34.84277344 376.31567383 C33.65941406 376.54125977 32.47605469 376.7668457 31.25683594 376.99926758 C-15.29365182 384.32011435 -64.44174731 372.86505534 -103.15722656 346.31567383 C-104.25164062 345.57961914 -105.34605469 344.84356445 -106.47363281 344.08520508 C-114.51851202 338.57829372 -121.73250273 332.47900202 -128.72900391 325.69702148 C-130.00097503 324.46679711 -131.29081159 323.25510555 -132.58300781 322.04614258 C-137.19769047 317.62817819 -141.25574636 312.87601494 -145.21972656 307.87817383 C-145.70973145 307.26216309 -146.19973633 306.64615234 -146.70458984 306.01147461 C-150.15722656 301.56671512 -150.15722656 301.56671512 -150.15722656 299.31567383 C-150.81722656 299.31567383 -151.47722656 299.31567383 -152.15722656 299.31567383 C-153.45068359 297.65771484 -153.45068359 297.65771484 -154.91503906 295.31958008 C-155.45435059 294.45969482 -155.99366211 293.59980957 -156.54931641 292.71386719 C-157.12117676 291.77808838 -157.69303711 290.84230957 -158.28222656 289.87817383 C-158.8682666 288.92112549 -159.45430664 287.96407715 -160.05810547 286.97802734 C-177.70208838 257.72948936 -186.62358857 225.571666 -186.53222656 191.44067383 C-186.5313504 190.63441559 -186.53047424 189.82815735 -186.52957153 188.99746704 C-186.38262475 147.7522005 -173.80024716 106.95315258 -148.15722656 74.31567383 C-147.53992676 73.52700928 -147.53992676 73.52700928 -146.91015625 72.72241211 C-131.41807592 53.18031077 -112.89405976 36.60281147 -91.15722656 24.31567383 C-90.52913086 23.95521973 -89.90103516 23.59476563 -89.25390625 23.22338867 C-74.4813072 14.80393992 -59.30818952 9.18971898 -42.84472656 5.00317383 C-41.41471313 4.63929565 -41.41471313 4.63929565 -39.95581055 4.26806641 C-26.63358579 1.03881666 -13.65597906 -0.03479723 0 0 Z " fill="#F5DFD5" transform="translate(247.1572265625,60.684326171875)"/>
<path d="M0 0 C0.89203125 0.45890625 1.7840625 0.9178125 2.703125 1.390625 C19.24296191 10.48205853 32.30066444 25.37403815 41.9609375 41.29785156 C42.9113492 42.85477598 43.89171877 44.39331057 44.875 45.9296875 C50.18445363 54.48644089 53.78390856 63.49694353 57 73 C57.26119629 73.73669922 57.52239258 74.47339844 57.79150391 75.23242188 C68.84648428 107.56557347 61.91099601 145.38694074 51.67578125 176.89306641 C50.70738068 179.91232108 49.83038851 182.95769841 48.9375 186 C45.87151367 195.8414376 42.13890601 204.68060825 36 213 C35.48695313 213.7425 34.97390625 214.485 34.4453125 215.25 C33.96835937 215.8275 33.49140625 216.405 33 217 C32.34 217 31.68 217 31 217 C31 217.66 31 218.32 31 219 C28.734375 220.65625 28.734375 220.65625 25.75 222.5 C24.77546875 223.1084375 23.8009375 223.716875 22.796875 224.34375 C21.41242188 225.16359375 21.41242188 225.16359375 20 226 C18.98486328 226.60328125 18.98486328 226.60328125 17.94921875 227.21875 C9.78769944 230.48990002 -1.30628879 225.68190202 -9.26147461 223.25976562 C-14.42796243 221.68970655 -19.53841162 220.40870668 -24.85375977 219.44580078 C-30.79507882 218.21171494 -33.73777807 215.56172557 -37.01953125 210.71875 C-41.28551301 203.24053495 -40.16652266 192.36313819 -40 184 C-39.09378906 183.50371094 -38.18757812 183.00742187 -37.25390625 182.49609375 C-22.91103111 174.54360853 -12.43134468 167.0708281 -7 151 C-6.76925781 150.1646875 -6.53851563 149.329375 -6.30078125 148.46875 C-4.58388494 142.35540822 -4.58388494 142.35540822 -1.125 140.25 C0.421875 139.63125 0.421875 139.63125 2 139 C8.54133322 133.23739692 12.41471095 127.08345894 13.2578125 118.3203125 C13.43826527 113.88117446 13.23607493 110.61164869 11.625 106.4375 C8.40686633 103.44923302 6.35609718 103.17508834 2.109375 102.546875 C-11.0442081 100.23343074 -23.38537819 95.07634268 -34 87 C-33.45859375 87.83144531 -33.45859375 87.83144531 -32.90625 88.6796875 C-32.4421875 89.40414062 -31.978125 90.12859375 -31.5 90.875 C-31.0359375 91.59429687 -30.571875 92.31359375 -30.09375 93.0546875 C-29 95 -29 95 -29 97 C-39.9967182 93.59625389 -49.95048999 87.03850778 -59 80 C-59 79.34 -59 78.68 -59 78 C-59.85078125 77.62488281 -59.85078125 77.62488281 -60.71875 77.2421875 C-67.8714244 73.34740931 -73.69178614 66.42268887 -79.5 60.75 C-80.01626953 60.25516113 -80.53253906 59.76032227 -81.06445312 59.25048828 C-83.96691895 56.37410987 -85.79782408 53.92138335 -87 50 C-87.66 50 -88.32 50 -89 50 C-89.66 49.34 -90.32 48.68 -91 48 C-91.3403125 48.969375 -91.680625 49.93875 -92.03125 50.9375 C-99.33759224 71.31672855 -109.61955922 96.73699232 -130 107 C-130.66 107 -131.32 107 -132 107 C-134.50627738 115.81239466 -133.07232021 123.46982363 -128.7109375 131.3203125 C-126.32883928 135.18007592 -124.3283505 138.02193212 -120.375 140.3125 C-116.00983101 143.08859431 -115.33716896 147.08859207 -113.95703125 151.86328125 C-109.95980143 164.96440594 -102.65495022 172.24231759 -91 179 C-88.02878578 180.40327518 -85.02680365 181.72150923 -82 183 C-81.88337739 187.04142215 -81.8126065 191.08240865 -81.75 195.125 C-81.71648437 196.26710938 -81.68296875 197.40921875 -81.6484375 198.5859375 C-81.5931415 203.3413938 -81.64687671 207.09735339 -83.390625 211.5546875 C-87.16736407 215.09396693 -91.12161157 216.42735091 -96 218 C-97.05026367 218.34337402 -98.10052734 218.68674805 -99.18261719 219.04052734 C-102.5712733 220.1207172 -105.9700666 221.15985023 -109.375 222.1875 C-110.53644531 222.54263672 -111.69789063 222.89777344 -112.89453125 223.26367188 C-115.92659393 224.18731178 -118.95781278 225.11027239 -122 226 C-123.0971936 226.33946655 -123.0971936 226.33946655 -124.21655273 226.68579102 C-126 227 -126 227 -128.26171875 225.734375 C-153.36170403 205.20169783 -163.0218163 172.25050827 -166.79826355 141.07028198 C-167.32607549 135.6537123 -167.18589457 130.18684356 -167.18530273 124.74902344 C-167.18746776 122.53300117 -167.20560861 120.31749566 -167.22460938 118.1015625 C-167.27931957 104.73180476 -166.26264098 91.61993041 -162.375 78.75 C-161.99021484 77.44301147 -161.99021484 77.44301147 -161.59765625 76.10961914 C-156.04871117 57.83064456 -148.77920436 40.14155188 -137 25 C-136.2678125 24.03964844 -135.535625 23.07929688 -134.78125 22.08984375 C-130.73232433 16.87465144 -130.73232433 16.87465144 -129 15 C-128.34 15 -127.68 15 -127 15 C-126.505 13.515 -126.505 13.515 -126 12 C-125.34 12 -124.68 12 -124 12 C-124 11.34 -124 10.68 -124 10 C-122.12020908 8.3415393 -120.24683673 6.81917602 -118.25 5.3125 C-117.66307373 4.86696777 -117.07614746 4.42143555 -116.47143555 3.96240234 C-81.35077484 -22.2355083 -37.4228846 -20.0795455 0 0 Z " fill="#201E3D" transform="translate(305,135)"/>
<path d="M0 0 C0.99 0.495 0.99 0.495 2 1 C2 1.66 2 2.32 2 3 C2.66 3 3.32 3 4 3 C5.24633789 4.47973633 5.24633789 4.47973633 6.66015625 6.51953125 C9.89825693 10.97940847 13.52252246 14.82031466 17.4375 18.6875 C18.06720703 19.32494141 18.69691406 19.96238281 19.34570312 20.61914062 C22.32140734 23.58261173 25.27559254 26.30024376 28.72265625 28.70703125 C31.51033225 30.65740767 33.62201228 32.60730308 36 35 C44.23187347 40.74844457 53.00059522 45.57923975 62 50 C60.02 47.03 58.04 44.06 56 41 C56.33 40.34 56.66 39.68 57 39 C57.66902344 39.50789063 58.33804688 40.01578125 59.02734375 40.5390625 C70.2156887 48.55862787 82.00417943 52.65296978 95.6015625 54.515625 C98.92246183 55.18629522 100.77391316 56.47710158 103 59 C106.14645198 64.17317016 105.76920722 70.39312917 104.53515625 76.1796875 C101.87955994 84.00505415 97.36119939 91.07402699 90 95 C89.01 95.33 88.02 95.66 87 96 C86.10065773 98.50979237 85.3674234 100.93136853 84.6875 103.5 C80.14894221 119.13012269 70.8330375 126.77699432 56.9765625 134.3984375 C55.32817752 135.2853638 53.67423088 136.16288456 52 137 C51.31895457 152.7497392 51.31895457 152.7497392 57 167 C60.84263817 170.84263817 65.94201312 171.79567948 71.11328125 172.90234375 C76.75467136 174.14307169 82.31797673 175.64350108 87.89453125 177.14453125 C91.81363154 178.19005228 95.71639411 179.1589401 99.69140625 179.96875 C110.6924958 182.37981612 120.17384288 189.1738986 127 198 C132.20323587 206.19853529 136.11598525 214.91423529 136.03515625 224.73046875 C136.03008057 225.53250732 136.02500488 226.3345459 136.01977539 227.16088867 C136.01324951 227.76779541 136.00672363 228.37470215 136 229 C112.13873592 243.04368676 87.58408474 252.38515019 60 256 C58.22496094 256.27457031 58.22496094 256.27457031 56.4140625 256.5546875 C50.10012713 257.3243424 43.72671166 257.24436812 37.375 257.25 C36.68981293 257.25067474 36.00462585 257.25134949 35.29867554 257.25204468 C-2.44759727 257.19331569 -38.84311186 246.55256299 -70 225 C-70.7425 224.51273438 -71.485 224.02546875 -72.25 223.5234375 C-74 222 -74 222 -74.5625 218.5625 C-73.76630989 206.0964377 -65.79260094 197.0523081 -57 189 C-56.34 189 -55.68 189 -55 189 C-55 188.34 -55 187.68 -55 187 C-47.94506506 183.66374105 -40.8985236 180.42013914 -33.28222656 178.58642578 C-28.36827538 177.32376952 -23.53893332 175.74318224 -18.69262695 174.24414062 C-16.70565044 173.63060447 -14.71711923 173.02230066 -12.72851562 172.4140625 C-11.44781646 172.0185535 -10.16721435 171.62273006 -8.88671875 171.2265625 C-7.15748169 170.69409912 -7.15748169 170.69409912 -5.39331055 170.15087891 C1.48673065 168.08484242 1.48673065 168.08484242 6.90551758 163.68481445 C8.14354848 160.64786915 8.42775433 158.31758097 8.51171875 155.04296875 C8.56489258 153.37524414 8.56489258 153.37524414 8.61914062 151.67382812 C8.64169922 150.52333984 8.66425781 149.37285156 8.6875 148.1875 C8.72166016 147.01767578 8.75582031 145.84785156 8.79101562 144.64257812 C8.87332316 141.76181446 8.94253178 138.88134862 9 136 C8.24009766 135.86948242 7.48019531 135.73896484 6.69726562 135.60449219 C3.13817658 134.8068542 0.59233816 133.17187371 -2.5 131.25 C-3.6034375 130.57453125 -4.706875 129.8990625 -5.84375 129.203125 C-8.94819938 127.03615786 -11.40972496 124.74994953 -14 122 C-14.53625 121.484375 -15.0725 120.96875 -15.625 120.4375 C-21.34023086 114.46248592 -23.70682706 106.60414158 -25.90625 98.7734375 C-27.12692408 95.6781568 -27.96574299 94.88719178 -30.75 93.1875 C-36.52189001 89.17866003 -39.78702163 84.03244594 -42.375 77.5625 C-43.39633553 71.74088748 -44.47744258 65.14530689 -41 60 C-39.08203125 58.76171875 -39.08203125 58.76171875 -36.8125 57.6875 C-21.20975305 49.44924961 -12.4678917 30.45131873 -6.421875 14.6484375 C-4.48187123 9.67051575 -2.27123742 4.83391681 0 0 Z " fill="#FD9B7C" transform="translate(214,182)"/>
<path d="M0 0 C25.03799689 9.25317276 49.20894583 8.97395174 74.578125 1.0234375 C78 0 78 0 80 0 C80.33 -0.66 80.66 -1.32 81 -2 C82.26714844 -1.66226562 83.53429687 -1.32453125 84.83984375 -0.9765625 C86.53903755 -0.52594757 88.23825772 -0.07543206 89.9375 0.375 C90.76830078 0.59671875 91.59910156 0.8184375 92.45507812 1.046875 C96.53185697 2.12555578 100.59395873 3.13479229 104.7265625 3.9765625 C115.71174364 6.38390959 125.18541663 13.18886326 132 22 C137.20323587 30.19853529 141.11598525 38.91423529 141.03515625 48.73046875 C141.03008057 49.53250732 141.02500488 50.3345459 141.01977539 51.16088867 C141.01324951 51.76779541 141.00672363 52.37470215 141 53 C117.13873592 67.04368676 92.58408474 76.38515019 65 80 C63.22496094 80.27457031 63.22496094 80.27457031 61.4140625 80.5546875 C55.10012713 81.3243424 48.72671166 81.24436812 42.375 81.25 C41.68981293 81.25067474 41.00462585 81.25134949 40.29867554 81.25204468 C2.55240273 81.19331569 -33.84311186 70.55256299 -65 49 C-65.7425 48.51273437 -66.485 48.02546875 -67.25 47.5234375 C-69 46 -69 46 -69.5625 42.5625 C-68.76630989 30.0964377 -60.79260094 21.0523081 -52 13 C-51.34 13 -50.68 13 -50 13 C-50 12.34 -50 11.68 -50 11 C-42.88583984 7.63573361 -35.79109638 4.39717883 -28.11376953 2.54492188 C-26.09701575 2.0250103 -24.17057932 1.39482093 -22.20703125 0.703125 C-8.13555978 -4.04075145 -8.13555978 -4.04075145 0 0 Z " fill="#A0727B" transform="translate(209,358)"/>
<path d="M0 0 C3.77596579 0.71392144 7.20108105 1.74194182 10.8125 3.0625 C19.91966562 6.09082669 25.16476296 5.26478523 34.16796875 1.97265625 C36.78256257 1.07467851 39.28968426 0.5124391 42 0 C42.03963867 0.62455078 42.07927734 1.24910156 42.12011719 1.89257812 C42.31241357 4.76321251 42.53101398 7.63128308 42.75 10.5 C42.811875 11.48226563 42.87375 12.46453125 42.9375 13.4765625 C43.50227654 20.53626925 44.66319133 26.66319133 49.875 31.875 C54.73446351 34.44765715 59.57458583 35.3489503 65 36 C65.33 36.99 65.66 37.98 66 39 C36.23769581 49.15328606 8.25696773 50.2986217 -21 37 C-17.74380937 32.88630721 -13.00245178 32.5364303 -8.12890625 31.35546875 C-3.9245872 29.53412204 -2.88748291 28.19390594 -1 24 C-0.39978946 19.87507055 -0.30394803 15.78880699 -0.25 11.625 C-0.20552734 9.94857422 -0.20552734 9.94857422 -0.16015625 8.23828125 C-0.08974176 5.4921161 -0.03690377 2.74678596 0 0 Z " fill="#FD9C7C" transform="translate(223,319)"/>
<path d="M0 0 C3.78415097 0.65721086 7.2090033 1.74483869 10.8125 3.0625 C19.91966562 6.09082669 25.16476296 5.26478523 34.16796875 1.97265625 C36.77795631 1.07626052 39.28519462 0.47149271 42 0 C42 3.3 42 6.6 42 10 C28.9196006 13.95947225 12.97852844 15.26156558 0 10 C0 6.7 0 3.4 0 0 Z " fill="#C46A63" transform="translate(223,319)"/>
<path d="M0 0 C-1.375 2.5 -1.375 2.5 -3 5 C-3.66 5 -4.32 5 -5 5 C-4.17192532 7.22969151 -4.17192532 7.22969151 -1.75 7.81640625 C-0.38875 8.18572266 -0.38875 8.18572266 1 8.5625 C5.90802348 9.90802348 5.90802348 9.90802348 7 11 C14.23775782 12.06503794 21.38166948 12.15473735 28.6875 12.125 C29.83202637 12.12306641 30.97655273 12.12113281 32.15576172 12.11914062 C40.14309395 12.07834846 48.04918786 11.80953724 56 11 C41.76854653 19.16165283 18.1645472 15.81538714 3 12 C-3.52689311 10.11810405 -9.81810577 7.80995192 -16 5 C-13.74113183 2.43080808 -11.79979195 1.31999869 -8.5625 0.25 C-7.80066406 -0.01296875 -7.03882813 -0.2759375 -6.25390625 -0.546875 C-3.79486911 -1.04123949 -2.35327446 -0.79335904 0 0 Z " fill="#E59784" transform="translate(218,351)"/>
<path d="M0 0 C0.33 0 0.66 0 1 0 C1.19927643 3.58697577 1.0683099 6.00095064 -1 9 C-3.6205332 10.69066658 -4.82629722 11 -8 11 C-8.33 11.99 -8.66 12.98 -9 14 C-12 16 -12 16 -16 16 C-16.31525723 23.65958317 -16.57430157 30.09790041 -13 37 C-11.37253306 38.70496537 -9.71108689 40.37897032 -8 42 C-7.1875 44.3125 -7.1875 44.3125 -7 46 C-4.69 46 -2.38 46 0 46 C0.77112541 50.72314313 1.09764874 55.21521178 1 60 C-0.25781022 57.66406673 -1.05655381 55.73985246 -1.625 53.125 C-3.094971 49.78415682 -3.85458539 49.17465717 -6.75 47.1875 C-12.52189001 43.17866003 -15.78702163 38.03244594 -18.375 31.5625 C-19.39633553 25.74088748 -20.47744258 19.14530689 -17 14 C-15.08203125 12.76171875 -15.08203125 12.76171875 -12.8125 11.6875 C-7.64052903 8.99707245 -2.66413576 5.32827153 0 0 Z " fill="#D79487" transform="translate(190,228)"/>
<path d="M0 0 C0.804375 0.27263672 0.804375 0.27263672 1.625 0.55078125 C5.73444436 1.86877738 9.79448498 3.00373885 14.05078125 3.7265625 C14.75396484 3.84604248 15.45714844 3.96552246 16.18164062 4.08862305 C17.57791927 4.31723008 18.97642011 4.5327383 20.37695312 4.73364258 C24.96092122 5.48355181 27.71780053 6.70584352 31 10 C34.05417857 14.53974579 33.46100755 19.74597744 33 25 C31.61869187 31.47705827 27.79753438 36.69082572 24 42 C23.34 41.34 22.68 40.68 22 40 C22.66 40 23.32 40 24 40 C24 39.01 24 38.02 24 37 C24.66 37 25.32 37 26 37 C26.66 35.02 27.32 33.04 28 31 C28.66 31 29.32 31 30 31 C30.02710123 28.4374282 30.04688771 25.87514635 30.0625 23.3125 C30.07087891 22.59126953 30.07925781 21.87003906 30.08789062 21.12695312 C30.10543632 17.28444618 29.93524221 13.73360474 29 10 C26.38113027 9.33073329 23.77351111 8.74283297 21.125 8.1875 C5.47947761 4.73973881 5.47947761 4.73973881 0 2 C0 1.34 0 0.68 0 0 Z " fill="#DC9889" transform="translate(286,231)"/>
<path d="M0 0 C3.77325069 0.21961899 7.54248264 0.48087324 11.3125 0.75 C12.9202832 0.8428125 12.9202832 0.8428125 14.56054688 0.9375 C15.58857422 1.01484375 16.61660156 1.0921875 17.67578125 1.171875 C18.62364502 1.2347168 19.57150879 1.29755859 20.5480957 1.36230469 C23 2 23 2 24.75952148 3.875 C27.59527348 8.73278103 28.27567112 13.17936733 28.25 18.75 C28.25515625 19.87921875 28.2603125 21.0084375 28.265625 22.171875 C28 25 28 25 26 27 C25.97421875 25.98679687 25.9484375 24.97359375 25.921875 23.9296875 C25.86555819 22.57808403 25.80821167 21.22652319 25.75 19.875 C25.73582031 19.20984375 25.72164063 18.5446875 25.70703125 17.859375 C25.46126138 12.84566963 24.28423575 9.788621 21 6 C18.83520211 4.97308802 18.83520211 4.97308802 16.4375 4.8125 C12.4782949 4.24015589 8.73063442 3.45457764 4.875 2.375 C3.94429688 2.11460937 3.01359375 1.85421875 2.0546875 1.5859375 C1.37664062 1.39257812 0.69859375 1.19921875 0 1 C0 0.67 0 0.34 0 0 Z " fill="#3D2333" transform="translate(293,233)"/>
<path d="M0 0 C4.29 0.66 8.58 1.32 13 2 C13.33 2.99 13.66 3.98 14 5 C12.23141309 5.67260351 10.46003984 6.33788395 8.6875 7 C7.70136719 7.37125 6.71523438 7.7425 5.69921875 8.125 C3 9 3 9 0 9 C0 8.34 0 7.68 0 7 C-0.99 7 -1.98 7 -3 7 C-3 6.34 -3 5.68 -3 5 C-2.01 4.34 -1.02 3.68 0 3 C0 2.01 0 1.02 0 0 Z " fill="#F89D7C" transform="translate(275,353)"/>
<path d="M0 0 C1.98 0 3.96 0 6 0 C6 0.66 6 1.32 6 2 C6.99 2.33 7.98 2.66 9 3 C8.67 3.99 8.34 4.98 8 6 C6.68 5.34 5.36 4.68 4 4 C4.54140625 4.72316406 4.54140625 4.72316406 5.09375 5.4609375 C5.5578125 6.09257812 6.021875 6.72421875 6.5 7.375 C6.9640625 8.00148437 7.428125 8.62796875 7.90625 9.2734375 C9 11 9 11 9 13 C3.42976898 11.27588087 -2.10371818 9.54566212 -6 5 C-3.69 5 -1.38 5 1 5 C0.67 3.35 0.34 1.7 0 0 Z " fill="#2D1F33" transform="translate(267,219)"/>
<path d="M0 0 C0.99 0.33 1.98 0.66 3 1 C-1.0920663 7.76080519 -6.40041312 14.60027541 -13 19 C-12.67558396 17.33157466 -12.34060811 15.66519519 -12 14 C-11.896875 13.319375 -11.79375 12.63875 -11.6875 11.9375 C-10.71424641 9.19469444 -9.22316886 7.8420542 -7 6 C-4.9375 5.3125 -4.9375 5.3125 -3 5 C-2.01 4.67 -1.02 4.34 0 4 C0 2.68 0 1.36 0 0 Z " fill="#31233A" transform="translate(193,220)"/>
<path d="M0 0 C0.33 0 0.66 0 1 0 C1.19927643 3.58697577 1.0683099 6.00095064 -1 9 C-3.6205332 10.69066658 -4.82629722 11 -8 11 C-8.33 11.99 -8.66 12.98 -9 14 C-12.4375 15.75 -12.4375 15.75 -16 17 C-16.66 16.67 -17.32 16.34 -18 16 C-15.91858163 13.75797836 -13.91788542 12.29050852 -11.25 10.8125 C-7.13709761 8.3341152 -4.35657212 5.28224492 -1.34765625 1.57421875 C-0.90292969 1.05472656 -0.45820313 0.53523437 0 0 Z " fill="#E49986" transform="translate(190,228)"/>
<path d="M0 0 C0.66 0.33 1.32 0.66 2 1 C2 1.66 2 2.32 2 3 C2.66 3 3.32 3 4 3 C5.296875 4.50390625 5.296875 4.50390625 6.75 6.5625 C9.64682256 10.56525236 12.74684614 14.28210987 16 18 C15.34 18.33 14.68 18.66 14 19 C14 18.34 14 17.68 14 17 C13.01 17.33 12.02 17.66 11 18 C8.24971922 15.62475751 7.23805156 13.3840076 6 10 C5.34786461 8.65949948 4.68620031 7.32338632 4 6 C2.35 6.33 0.7 6.66 -1 7 C-2 4 -2 4 -1.0625 1.8125 C-0.5365625 0.9153125 -0.5365625 0.9153125 0 0 Z " fill="#DB9787" transform="translate(214,182)"/>
<path d="M0 0 C3.367411 2.89971503 4.02149536 5.8647865 5.15625 10.0390625 C5.4346875 10.68617188 5.713125 11.33328125 6 12 C6.99 12.33 7.98 12.66 9 13 C11.6875 15.4375 11.6875 15.4375 14 18 C14 18.66 14 19.32 14 20 C14.99 19.67 15.98 19.34 17 19 C17.33 19.99 17.66 20.98 18 22 C18.66 22.33 19.32 22.66 20 23 C19.67 23.66 19.34 24.32 19 25 C9.12524557 18.82082771 2.48247206 12.26682136 -1 1 C-0.67 0.67 -0.34 0.34 0 0 Z " fill="#DA9483" transform="translate(192,288)"/>
<path d="M0 0 C1.65 0 3.3 0 5 0 C5.02578125 0.76183594 5.0515625 1.52367187 5.078125 2.30859375 C5.46482371 9.34826804 6.63054888 14.79394119 10 21 C9.01 21.99 8.02 22.98 7 24 C6.67 23.01 6.34 22.02 6 21 C5.34 20.67 4.68 20.34 4 20 C3.67 13.73 3.34 7.46 3 1 C2.01 0.67 1.02 0.34 0 0 Z " fill="#E2927E" transform="translate(261,329)"/>
<path d="M0 0 C0.99 0.33 1.98 0.66 3 1 C-4.03794406 7.12561798 -11.62103252 11.07869089 -20 15 C-20 14.01 -20 13.02 -20 12 C-18.02 11.67 -16.04 11.34 -14 11 C-14 10.34 -14 9.68 -14 9 C-12.087288 7.7599543 -10.11787422 6.60663133 -8.125 5.5 C-3.77382622 3.13228841 -3.77382622 3.13228841 0 0 Z " fill="#DB9888" transform="translate(285,304)"/>
<path d="M0 0 C3.46501297 1.27658372 6.34839551 2.76621059 9.375 4.875 C13.15753731 7.46005062 16.99203317 9.78282686 21 12 C21 12.33 21 12.66 21 13 C19.02 13 17.04 13 15 13 C15 12.34 15 11.68 15 11 C12.03 10.505 12.03 10.505 9 10 C8.67 9.01 8.34 8.02 8 7 C7.401875 6.855625 6.80375 6.71125 6.1875 6.5625 C3.22520517 5.80076704 1.95079184 4.29914753 0 2 C0 1.34 0 0.68 0 0 Z " fill="#DE9786" transform="translate(247,216)"/>
<path d="M0 0 C-0.33 0.99 -0.66 1.98 -1 3 C-1.99 3.33 -2.98 3.66 -4 4 C-4.639375 4.825 -5.27875 5.65 -5.9375 6.5 C-8.04586025 9.05558818 -8.7991535 9.65705216 -12 10 C-12 8.68 -12 7.36 -12 6 C-10.13671875 4.296875 -10.13671875 4.296875 -7.6875 2.75 C-6.88699219 2.22921875 -6.08648437 1.7084375 -5.26171875 1.171875 C-3 0 -3 0 0 0 Z " fill="#26233B" transform="translate(202,132)"/>
<path d="M0 0 C3.3 1.98 6.6 3.96 10 6 C9.01 6.33 8.02 6.66 7 7 C7.33 8.32 7.66 9.64 8 11 C6.35 11.66 4.7 12.32 3 13 C2.67 12.01 2.34 11.02 2 10 C3.32 10.33 4.64 10.66 6 11 C5.566875 10.37351563 5.13375 9.74703125 4.6875 9.1015625 C4.130625 8.28429687 3.57375 7.46703125 3 6.625 C2.443125 5.81289062 1.88625 5.00078125 1.3125 4.1640625 C0 2 0 2 0 0 Z " fill="#D59589" transform="translate(270,221)"/>
<path d="M0 0 C0.33 0.99 0.66 1.98 1 3 C0.34 3 -0.32 3 -1 3 C-0.938125 3.886875 -0.87625 4.77375 -0.8125 5.6875 C-1.02776513 9.49051728 -1.99965025 10.8142578 -4 14 C-5.1121537 16.96574319 -6.07004246 19.97269142 -7 23 C-7.33 23 -7.66 23 -8 23 C-7.55115455 15.36962743 -5.53288103 5.53288103 0 0 Z " fill="#E6DAD5" transform="translate(77,175)"/>
<path d="M0 0 C-1.05277207 3.15831622 -1.64975486 3.81762951 -4 6 C-5.2065625 7.2684375 -5.2065625 7.2684375 -6.4375 8.5625 C-8.66596308 10.68225756 -10.276865 11.73568732 -13 13 C-13.33 13.66 -13.66 14.32 -14 15 C-14 12 -14 12 -11.4453125 9.08203125 C-10.34630754 7.98435681 -9.23915907 6.89478953 -8.125 5.8125 C-7.56941406 5.25369141 -7.01382813 4.69488281 -6.44140625 4.11914062 C-2.26694139 0 -2.26694139 0 0 0 Z " fill="#E8DAD4" transform="translate(124,110)"/>
<path d="M0 0 C0.99 0.66 1.98 1.32 3 2 C2.236875 2.7425 1.47375 3.485 0.6875 4.25 C-1.9607804 6.81255089 -1.9607804 6.81255089 -3.625 9.3125 C-4.07875 9.869375 -4.5325 10.42625 -5 11 C-5.99 11 -6.98 11 -8 11 C-8 11.99 -8 12.98 -8 14 C-8.99 14 -9.98 14 -11 14 C-11 13.34 -11 12.68 -11 12 C-11.66 11.67 -12.32 11.34 -13 11 C-12.113125 10.608125 -11.22625 10.21625 -10.3125 9.8125 C-5.7460389 7.31387034 -2.87185586 4.30778378 0 0 Z " fill="#3C2533" transform="translate(314,266)"/>
<path d="M0 0 C0.99 1.32 1.98 2.64 3 4 C1.35 7.3 -0.3 10.6 -2 14 C-2.81720493 10.73118027 -3.11073543 8.53000931 -3.0625 5.25 C-3.05347656 4.45078125 -3.04445312 3.6515625 -3.03515625 2.828125 C-3.02355469 2.22484375 -3.01195312 1.6215625 -3 1 C-2.01 0.67 -1.02 0.34 0 0 Z " fill="#E8D7D5" transform="translate(157,169)"/>
<path d="M0 0 C3 1 3 1 5 4 C4.67 4.66 4.34 5.32 4 6 C-0.19469571 5.40075776 -4.00999834 4.42500059 -8 3 C-8 2.67 -8 2.34 -8 2 C-6.865625 1.855625 -5.73125 1.71125 -4.5625 1.5625 C-1.19222799 1.38828522 -1.19222799 1.38828522 0 0 Z " fill="#E8D6D2" transform="translate(283,120)"/>
<path d="M0 0 C0.99 0.495 0.99 0.495 2 1 C2.625 3.0625 2.625 3.0625 3 5 C3.33 4.34 3.66 3.68 4 3 C5.98 3 7.96 3 10 3 C9.25675659 5.39489543 8.52942646 6.70777616 6.30859375 7.93359375 C4.55926499 8.67219923 2.78065851 9.34049685 1 10 C0.67 6.7 0.34 3.4 0 0 Z " fill="#E9D5D2" transform="translate(349,400)"/>
<path d="M0 0 C4.29 0.66 8.58 1.32 13 2 C13.33 2.99 13.66 3.98 14 5 C11.69 5.66 9.38 6.32 7 7 C7 5.68 7 4.36 7 3 C5.824375 2.814375 5.824375 2.814375 4.625 2.625 C2 2 2 2 0 0 Z " fill="#E19886" transform="translate(275,353)"/>
<path d="M0 0 C0.66 0.33 1.32 0.66 2 1 C0.68 3.64 -0.64 6.28 -2 9 C-2.66 9 -3.32 9 -4 9 C-4.33 9.99 -4.66 10.98 -5 12 C-6.32 11.67 -7.64 11.34 -9 11 C-6.03 7.37 -3.06 3.74 0 0 Z " fill="#362E45" transform="translate(176,150)"/>
<path d="M0 0 C0.99 0.99 1.98 1.98 3 3 C1.80805531 8.52628901 0.4008703 11.17819158 -4 15 C-3.69255859 14.00419922 -3.69255859 14.00419922 -3.37890625 12.98828125 C-3.10949219 12.10527344 -2.84007812 11.22226562 -2.5625 10.3125 C-2.29566406 9.44238281 -2.02882813 8.57226562 -1.75390625 7.67578125 C-1.03655471 5.12974079 -0.482459 2.5996577 0 0 Z " fill="#D6C6C7" transform="translate(355,314)"/>
<path d="M0 0 C0.66 0.33 1.32 0.66 2 1 C0.02 5.95 -1.96 10.9 -4 16 C-4.33 16 -4.66 16 -5 16 C-5.2615341 10.63855102 -4.94463495 5.31860321 -1.375 1.0625 C-0.694375 0.5365625 -0.694375 0.5365625 0 0 Z " fill="#3A2133" transform="translate(208,192)"/>
<path d="M0 0 C-1 3 -1 3 -3.1796875 4.203125 C-4.06914062 4.54859375 -4.95859375 4.8940625 -5.875 5.25 C-6.75929688 5.60578125 -7.64359375 5.9615625 -8.5546875 6.328125 C-11 7 -11 7 -14 6 C-12.53706784 3.07413567 -10.59729902 2.94053412 -7.5625 1.875 C-6.57378906 1.52179688 -5.58507812 1.16859375 -4.56640625 0.8046875 C-2 0 -2 0 0 0 Z " fill="#AF9095" transform="translate(327,421)"/>
<path d="M0 0 C3.08089673 2.77280706 4.68775452 5.06326356 6 9 C2.27566618 7.7874262 -1.37802806 6.49140021 -5 5 C-5 4.67 -5 4.34 -5 4 C-3.02 4 -1.04 4 1 4 C0.67 2.68 0.34 1.36 0 0 Z " fill="#502C36" transform="translate(270,223)"/>
<path d="M0 0 C0.99 0.33 1.98 0.66 3 1 C-2.14953271 8.81308411 -2.14953271 8.81308411 -4 11 C-4.66 11 -5.32 11 -6 11 C-6.33 9.02 -6.66 7.04 -7 5 C-3.535 4.505 -3.535 4.505 0 4 C0 2.68 0 1.36 0 0 Z " fill="#392232" transform="translate(193,220)"/>
<path d="M0 0 C0.33 0.66 0.66 1.32 1 2 C0.0625 4.125 0.0625 4.125 -1 6 C-1.66 6 -2.32 6 -3 6 C-3.185625 7.2065625 -3.185625 7.2065625 -3.375 8.4375 C-3.58125 9.283125 -3.7875 10.12875 -4 11 C-4.99 11.495 -4.99 11.495 -6 12 C-6.66 11.34 -7.32 10.68 -8 10 C-7.04737966 8.51714758 -6.08771595 7.03881799 -5.125 5.5625 C-4.32449219 4.32693359 -4.32449219 4.32693359 -3.5078125 3.06640625 C-2 1 -2 1 0 0 Z " fill="#E29682" transform="translate(199,217)"/>
<path d="M0 0 C0.66 0.99 1.32 1.98 2 3 C0.94533451 6.64338987 -0.79802484 9.91723478 -3 13 C-3.99 13 -4.98 13 -6 13 C-5.71382813 12.43796875 -5.42765625 11.8759375 -5.1328125 11.296875 C-3.98584069 8.97129077 -2.92160206 6.62229799 -1.875 4.25 C-1.52179688 3.45078125 -1.16859375 2.6515625 -0.8046875 1.828125 C-0.53914063 1.22484375 -0.27359375 0.6215625 0 0 Z " fill="#DCCECD" transform="translate(348,334)"/>
<path d="M0 0 C0.66 0 1.32 0 2 0 C1.40895235 4.84659077 0.02055843 8.60748167 -2 13 C-3.32 12.34 -4.64 11.68 -6 11 C-5.67 10.34 -5.34 9.68 -5 9 C-4.34 9 -3.68 9 -3 9 C-2.01 6.03 -1.02 3.06 0 0 Z " fill="#2D243D" transform="translate(353,316)"/>
<path d="M0 0 C2.6875 -0.3125 2.6875 -0.3125 5 0 C3.625 1.5 3.625 1.5 2 3 C1.34 3 0.68 3 0 3 C-0.66 7.62 -1.32 12.24 -2 17 C-2.33 17 -2.66 17 -3 17 C-3.08160748 15.10489301 -3.13946459 13.20875496 -3.1875 11.3125 C-3.22230469 10.25675781 -3.25710937 9.20101562 -3.29296875 8.11328125 C-2.96262058 4.60278141 -2.15721846 2.76775199 0 0 Z " fill="#3E212F" transform="translate(173,239)"/>
<path d="M0 0 C0.99 0 1.98 0 3 0 C3.19294408 4.82360189 2.75747614 8.49646738 1 13 C-0.9078584 9.8250906 -1.1609041 7.89414789 -0.625 4.25 C-0.51414063 3.45078125 -0.40328125 2.6515625 -0.2890625 1.828125 C-0.19367188 1.22484375 -0.09828125 0.6215625 0 0 Z " fill="#2F1D31" transform="translate(210,179)"/>
<path d="M0 0 C0.33 0.99 0.66 1.98 1 3 C-1.31 4.65 -3.62 6.3 -6 8 C-6 7.34 -6 6.68 -6 6 C-6.66 5.67 -7.32 5.34 -8 5 C-6.1875 3 -6.1875 3 -4 1 C-3.01 1 -2.02 1 -1 1 C-0.67 0.67 -0.34 0.34 0 0 Z " fill="#E4D3D1" transform="translate(189,136)"/>
<path d="M0 0 C1.54078615 2.98440561 2.86973276 6.01007758 4.125 9.125 C4.47820312 9.99382812 4.83140625 10.86265625 5.1953125 11.7578125 C6 14 6 14 6 16 C5.34 16 4.68 16 4 16 C1.18150494 10.45108785 -0.5326514 6.258654 0 0 Z " fill="#482A32" transform="translate(188,280)"/>
<path d="M0 0 C-2.05233685 2.2477975 -3.00667261 3.0022242 -6 4 C-6.80212628 5.87387216 -6.80212628 5.87387216 -7.1875 8.0625 C-7.34605469 8.79597656 -7.50460937 9.52945312 -7.66796875 10.28515625 C-7.83232422 11.13400391 -7.83232422 11.13400391 -8 12 C-8.33 12 -8.66 12 -9 12 C-8.67 8.37 -8.34 4.74 -8 1 C-5.07175348 0.02391783 -3.04386724 -0.08226668 0 0 Z " fill="#E29989" transform="translate(307,274)"/>
<path d="M0 0 C0 2.79784711 -0.37195775 4.9790678 -1 7.6875 C-1.185625 8.49574219 -1.37125 9.30398438 -1.5625 10.13671875 C-1.706875 10.75160156 -1.85125 11.36648438 -2 12 C-3.94158017 8.48375245 -4.18311068 6.0284349 -4 2 C-2.68 1.34 -1.36 0.68 0 0 Z " fill="#332035" transform="translate(270,316)"/>
<path d="M0 0 C0.33 0 0.66 0 1 0 C0.58846263 4.97093824 0.20399168 9.44508386 -2 14 C-2.33 14 -2.66 14 -3 14 C-2.88512252 12.41590006 -2.75765492 10.83271037 -2.625 9.25 C-2.55539062 8.36828125 -2.48578125 7.4865625 -2.4140625 6.578125 C-2.00149945 4.00933618 -1.28839043 2.24158985 0 0 Z " fill="#E7DAD5" transform="translate(433,292)"/>
<path d="M0 0 C3.2682346 3.14718888 6.1310659 6.49352499 9 10 C5.00544473 9.38545304 2.25533664 7.29353263 -1 5 C-0.67 3.35 -0.34 1.7 0 0 Z " fill="#402435" transform="translate(175,266)"/>
<path d="M0 0 C0.66 0 1.32 0 2 0 C2.05429959 1.74965358 2.09292823 3.49979787 2.125 5.25 C2.14820313 6.22453125 2.17140625 7.1990625 2.1953125 8.203125 C1.99862781 11.0196498 1.44568916 12.60949036 0 15 C-0.19448477 12.87562788 -0.38038289 10.75046809 -0.5625 8.625 C-0.66691406 7.44164062 -0.77132812 6.25828125 -0.87890625 5.0390625 C-1 2 -1 2 0 0 Z " fill="#2E253D" transform="translate(139,267)"/>
<path d="M0 0 C4.96916636 0.51405169 9.29026351 1.23384882 14 3 C10.78543644 4.03719328 8.59074417 3.94068337 5.3125 3.1875 C4.52488281 3.01605469 3.73726563 2.84460938 2.92578125 2.66796875 C1 2 1 2 0 0 Z " fill="#EADDD9" transform="translate(288,65)"/>
<path d="M0 0 C3.45281166 1.15093722 4.38082163 2.3205993 6.6875 5.0625 C7.31011719 5.79597656 7.93273437 6.52945312 8.57421875 7.28515625 C9.04472656 7.85105469 9.51523438 8.41695313 10 9 C9.01 9.33 8.02 9.66 7 10 C5.82739389 8.71372289 4.6620717 7.42080217 3.5 6.125 C2.8503125 5.40570313 2.200625 4.68640625 1.53125 3.9453125 C0 2 0 2 0 0 Z " fill="#EADDD9" transform="translate(104,369)"/>
<path d="M0 0 C2.7710688 2.34591852 3.52059284 4.14776201 4.1875 7.6875 C4.34605469 8.49574219 4.50460937 9.30398438 4.66796875 10.13671875 C4.77753906 10.75160156 4.88710938 11.36648438 5 12 C0.02368421 7.18421053 0.02368421 7.18421053 -0.0625 2.875 C-0.041875 1.92625 -0.02125 0.9775 0 0 Z " fill="#3D202F" transform="translate(267,338)"/>
<path d="M0 0 C0.33 0.66 0.66 1.32 1 2 C0.67 2.99 0.34 3.98 0 5 C-0.99 5 -1.98 5 -3 5 C-3 5.66 -3 6.32 -3 7 C-4.98 7.99 -4.98 7.99 -7 9 C-7.66 8.34 -8.32 7.68 -9 7 C-8.43410156 6.57847656 -7.86820312 6.15695312 -7.28515625 5.72265625 C-6.55167969 5.17480469 -5.81820313 4.62695312 -5.0625 4.0625 C-4.33160156 3.51722656 -3.60070312 2.97195313 -2.84765625 2.41015625 C-1.0865547 1.13092062 -1.0865547 1.13092062 0 0 Z " fill="#3E2334" transform="translate(289,303)"/>
<path d="M0 0 C3.74525799 3.74525799 3.68909949 7.98270909 4 13 C3.34 13 2.68 13 2 13 C0.24252386 8.49646738 -0.19294408 4.82360189 0 0 Z " fill="#E7DAD7" transform="translate(65,287)"/>
<path d="M0 0 C0.66 0.33 1.32 0.66 2 1 C0.02 4.63 -1.96 8.26 -4 12 C-5.11841676 8.64474971 -4.91538821 8.02910146 -3.6875 4.875 C-3.42324219 4.17117187 -3.15898437 3.46734375 -2.88671875 2.7421875 C-2 1 -2 1 0 0 Z " fill="#3D2231" transform="translate(201,208)"/>
<path d="M0 0 C0.99 0 1.98 0 3 0 C3.50615298 1.26839526 4.00469099 2.53983102 4.5 3.8125 C4.91765625 4.87404297 4.91765625 4.87404297 5.34375 5.95703125 C6 8 6 8 6 11 C5.34 11 4.68 11 4 11 C2.68 7.37 1.36 3.74 0 0 Z " fill="#DACDD0" transform="translate(355,192)"/>
<path d="M0 0 C0 0.66 0 1.32 0 2 C-4.8333472 2.08333357 -9.23692563 1.95261487 -14 1 C-14 0.67 -14 0.34 -14 0 C-9.02936879 -0.91297308 -4.97063121 -0.91297308 0 0 Z " fill="#A07F85" transform="translate(274,436)"/>
<path d="M0 0 C0.66 0.66 1.32 1.32 2 2 C-0.31 4.31 -2.62 6.62 -5 9 C-5.33 8.01 -5.66 7.02 -6 6 C-2.83636364 1.41818182 -2.83636364 1.41818182 0 0 Z " fill="#F0E4E0" transform="translate(383,381)"/>
<path d="M0 0 C0.99 0.33 1.98 0.66 3 1 C1.90716423 2.03295436 0.80029421 3.05107835 -0.3125 4.0625 C-0.92738281 4.63097656 -1.54226562 5.19945312 -2.17578125 5.78515625 C-2.77777344 6.18605469 -3.37976563 6.58695312 -4 7 C-4.99 6.67 -5.98 6.34 -7 6 C-5.625 4.5 -5.625 4.5 -4 3 C-3.34 3 -2.68 3 -2 3 C-2 2.34 -2 1.68 -2 1 C-1.34 0.67 -0.68 0.34 0 0 Z " fill="#A37E80" transform="translate(161,368)"/>
<path d="M0 0 C-0.33 0.99 -0.66 1.98 -1 3 C-2.875 3.5625 -2.875 3.5625 -5 4 C-5.99 4.66 -6.98 5.32 -8 6 C-8.99 5.01 -9.98 4.02 -11 3 C-9.54293274 2.49632243 -8.08429904 1.99717444 -6.625 1.5 C-5.81289062 1.2215625 -5.00078125 0.943125 -4.1640625 0.65625 C-2 0 -2 0 0 0 Z " fill="#8A6679" transform="translate(198,356)"/>
<path d="M0 0 C3.53372712 1.96318174 6.24479785 4.04070881 9 7 C5.76712991 7 3.84401775 6.68771817 1.3125 4.625 C0 3 0 3 0 0 Z " fill="#D18D7E" transform="translate(238,208)"/>
<path d="M0 0 C0 3.62453269 -0.92469613 5.07920195 -3 8 C-3.99 8.33 -4.98 8.66 -6 9 C-6 7.68 -6 6.36 -6 5 C-5.34 5 -4.68 5 -4 5 C-4 4.34 -4 3.68 -4 3 C-2 1.375 -2 1.375 0 0 Z " fill="#332A3E" transform="translate(185,142)"/>
<path d="M0 0 C0.66 0.33 1.32 0.66 2 1 C0.71937515 2.7074998 -0.61767557 4.37373596 -2 6 C-2.66 6 -3.32 6 -4 6 C-4 5.34 -4 4.68 -4 4 C-4.66 3.67 -5.32 3.34 -6 3 C-4.03533587 1.93224776 -2.03144641 0.93446535 0 0 Z " fill="#363046" transform="translate(209,127)"/>
<path d="M0 0 C1.46067199 0.45082469 2.91848032 0.91093537 4.375 1.375 C5.18710938 1.63023437 5.99921875 1.88546875 6.8359375 2.1484375 C9 3 9 3 11 5 C9.54052295 4.93993922 8.08220728 4.8511311 6.625 4.75 C5.81289062 4.70359375 5.00078125 4.6571875 4.1640625 4.609375 C2 4 2 4 0.7109375 1.953125 C0.47632813 1.30859375 0.24171875 0.6640625 0 0 Z " fill="#A9706F" transform="translate(200,355)"/>
<path d="M0 0 C2 1 2 1 2 1 Z M-5 1 C-3.35 1 -1.7 1 0 1 C0.66 2.32 1.32 3.64 2 5 C1.01 5.495 1.01 5.495 0 6 C-1.65 4.35 -3.3 2.7 -5 1 Z " fill="#362334" transform="translate(259,218)"/>
<path d="M0 0 C-1.32 1.32 -2.64 2.64 -4 4 C-4.99 3.67 -5.98 3.34 -7 3 C-7.33 2.01 -7.66 1.02 -8 0 C-5.13822943 -1.43088528 -3.06624227 -0.59991697 0 0 Z " fill="#2B263F" transform="translate(334,354)"/>
<path d="M0 0 C0.99 0 1.98 0 3 0 C3.103125 0.61875 3.20625 1.2375 3.3125 1.875 C3.87525373 4.36526484 3.87525373 4.36526484 7 6 C6.34 7.32 5.68 8.64 5 10 C3.35 6.7 1.7 3.4 0 0 Z " fill="#342C41" transform="translate(155,333)"/>
<path d="M0 0 C2.475 0.99 2.475 0.99 5 2 C5 3.98 5 5.96 5 8 C3 7 3 7 2 4 C1.34 3.67 0.68 3.34 0 3 C0 2.01 0 1.02 0 0 Z " fill="#2F1C2E" transform="translate(183,276)"/>
<path d="M0 0 C0.99 0.66 1.98 1.32 3 2 C2.34 2 1.68 2 1 2 C0.67 3.65 0.34 5.3 0 7 C-1.65 7.33 -3.3 7.66 -5 8 C-3.38731308 5.28775382 -1.75098126 2.62647188 0 0 Z " fill="#F29C83" transform="translate(309,266)"/>
<path d="M0 0 C0.33 0.66 0.66 1.32 1 2 C2.64551962 2.71727778 4.31422289 3.38325228 6 4 C6.66 4.33 7.32 4.66 8 5 C8 5.99 8 6.98 8 8 C4.18315774 6.44499019 1.80804268 3.96404505 -1 1 C-0.67 0.67 -0.34 0.34 0 0 Z " fill="#341F30" transform="translate(238,205)"/>
<path d="M0 0 C0.93065133 2.60582371 1.14917407 3.64198224 0.0625 6.25 C-0.4634375 7.11625 -0.4634375 7.11625 -1 8 C-1.99 8 -2.98 8 -4 8 C-2.87548273 5.0280615 -1.77706209 2.66559313 0 0 Z " fill="#3E3649" transform="translate(163,167)"/>
<path d="M0 0 C5.75 3.625 5.75 3.625 8 7 C5.5625 6.625 5.5625 6.625 3 6 C2.67 5.34 2.34 4.68 2 4 C1.01 3.34 0.02 2.68 -1 2 C-0.67 1.34 -0.34 0.68 0 0 Z " fill="#3C3249" transform="translate(322,148)"/>
<path d="M0 0 C1.98 0 3.96 0 6 0 C5.01 1.485 5.01 1.485 4 3 C0.375 3.6875 0.375 3.6875 -3 4 C-2.67 3.34 -2.34 2.68 -2 2 C-1.34 2 -0.68 2 0 2 C0 1.34 0 0.68 0 0 Z " fill="#A47E86" transform="translate(303,428)"/>
<path d="M0 0 C-1.49097658 3.7952131 -3.75700849 5.61042731 -7 8 C-6.44414399 4.1090079 -4.34122117 0 0 0 Z " fill="#EEE5DE" transform="translate(392,374)"/>
<path d="M0 0 C3.3 0 6.6 0 10 0 C6.32740617 2.44839588 3.45351799 4 -1 4 C-0.67 2.68 -0.34 1.36 0 0 Z " fill="#332339" transform="translate(180,358)"/>
<path d="M0 0 C1.65 0 3.3 0 5 0 C5 0.66 5 1.32 5 2 C5.99 2.33 6.98 2.66 8 3 C7.67 3.99 7.34 4.98 7 6 C3.73539027 4.19587357 2.11070205 3.16605307 0 0 Z " fill="#422D41" transform="translate(268,219)"/>
<path d="M0 0 C2.33524782 2.25740623 4.18705073 4.2805761 6 7 C5.625 9.1875 5.625 9.1875 5 11 C4.15841464 9.73461631 3.32700252 8.46246221 2.5 7.1875 C1.80390625 6.12595703 1.80390625 6.12595703 1.09375 5.04296875 C0 3 0 3 0 0 Z " fill="#E7D8D5" transform="translate(408,147)"/>
<path d="M0 0 C1.32 0 2.64 0 4 0 C4 0.66 4 1.32 4 2 C5.65 2.33 7.3 2.66 9 3 C7.3125 4.1875 7.3125 4.1875 5 5 C2.25 3.75 2.25 3.75 0 2 C0 1.34 0 0.68 0 0 Z " fill="#E0D0D2" transform="translate(300,131)"/>
<path d="M0 0 C2.50037734 2.17424117 3.43628586 3.73045798 4 7 C3.01 7.33 2.02 7.66 1 8 C0.26919734 6.02253397 -0.39421747 4.01927511 -1 2 C-0.67 1.34 -0.34 0.68 0 0 Z " fill="#322B42" transform="translate(350,183)"/>
<path d="M0 0 C0.66 0.33 1.32 0.66 2 1 C1.67 2.32 1.34 3.64 1 5 C-0.65 5.33 -2.3 5.66 -4 6 C-4.33 5.34 -4.66 4.68 -5 4 C-3.73293765 1.46587529 -2.59334288 1.02161992 0 0 Z " fill="#E4D3D1" transform="translate(214,121)"/>
<path d="M0 0 C0.66 0.33 1.32 0.66 2 1 C1.4375 2.875 1.4375 2.875 0 5 C-3.625 6.25 -3.625 6.25 -7 7 C-5.37660195 5.29115995 -3.70680947 3.62553283 -2 2 C-1.34 2 -0.68 2 0 2 C0 1.34 0 0.68 0 0 Z " fill="#D7C9CD" transform="translate(336,352)"/>
<path d="M0 0 C6.625 0.75 6.625 0.75 10 3 C9.67 3.66 9.34 4.32 9 5 C4.545 3.02 4.545 3.02 0 1 C0 0.67 0 0.34 0 0 Z " fill="#D18F88" transform="translate(214,314)"/>
<path d="M0 0 C3.465 1.485 3.465 1.485 7 3 C7 3.99 7 4.98 7 6 C6.67 5.34 6.34 4.68 6 4 C5.01 4.33 4.02 4.66 3 5 C1.5 3.625 1.5 3.625 0 2 C0 1.34 0 0.68 0 0 Z " fill="#E4977A" transform="translate(222,195)"/>
<path d="M0 0 C2.95183101 2.95183101 3.08663988 5.95511947 4 10 C3.01 9.67 2.02 9.34 1 9 C0.67 6.03 0.34 3.06 0 0 Z " fill="#472936" transform="translate(171,256)"/>
<path d="M0 0 C1.98 0.99 1.98 0.99 4 2 C4 2.99 4 3.98 4 5 C2.68 5 1.36 5 0 5 C0 3.35 0 1.7 0 0 Z " fill="#E99984" transform="translate(234,205)"/>
<path d="M0 0 C1.9375 0.5625 1.9375 0.5625 4 2 C4.75 5.625 4.75 5.625 5 9 C2.67527795 6.14693203 1.2491742 3.45925163 0 0 Z " fill="#E5DAD5" transform="translate(420,171)"/>
<path d="M0 0 C-0.33 0.99 -0.66 1.98 -1 3 C-3.31 3.33 -5.62 3.66 -8 4 C-3.375 0 -3.375 0 0 0 Z " fill="#362E3E" transform="translate(202,132)"/>
</svg>
